<?xml version="1.0" encoding="UTF-8"?>
<svg width="26px" height="26px" viewBox="0 0 26 26" version="1.1" xmlns="http://www.w3.org/2000/svg" xmlns:xlink="http://www.w3.org/1999/xlink">
    <title>Icono general/bt basurero 02@2x</title>
    <g id="Icono-general/bt-basurero-02" stroke="none" stroke-width="1" fill="none" fill-rule="evenodd">
        <path d="M12,6.33333333 C11.632,6.33333333 11.3333333,6.632 11.3333333,7 L11.3333333,7.66666667 L14,7.66666667 L14,7 C14,6.632 13.7013333,6.33333333 13.3333333,6.33333333 L12,6.33333333 Z M15.3333333,7.66666667 L15.3333333,7 C15.3333333,5.89533333 14.438,5 13.3333333,5 L12,5 C10.8953333,5 10,5.89533333 10,7 L10,7.66666667 L6.66666667,7.66666667 C6.29866667,7.66666667 6,7.96533333 6,8.33333333 C6,8.70133333 6.29866667,9 6.66666667,9 L6.73666667,9 L7.872,19.2206667 C7.98466667,20.234 8.84066667,21 9.86,21 L15.4733333,21 C16.4926667,21 17.3486667,20.234 17.4606667,19.2206667 L18.5966667,9 L18.6666667,9 C19.0346667,9 19.3333333,8.70133333 19.3333333,8.33333333 C19.3333333,7.96533333 19.0346667,7.66666667 18.6666667,7.66666667 L15.3333333,7.66666667 Z M17.2553333,9 L8.078,9 L9.19733333,19.0733333 C9.23533333,19.4113333 9.52066667,19.6666667 9.86,19.6666667 L15.4733333,19.6666667 C15.8126667,19.6666667 16.098,19.4113333 16.136,19.0733333 L17.2553333,9 Z M11.3333333,11 C11.7013333,11 12,11.2986667 12,11.6666667 L12,17 C12,17.368 11.7013333,17.6666667 11.3333333,17.6666667 C10.9653333,17.6666667 10.6666667,17.368 10.6666667,17 L10.6666667,11.6666667 C10.6666667,11.2986667 10.9653333,11 11.3333333,11 Z M14,11 C14.368,11 14.6666667,11.2986667 14.6666667,11.6666667 L14.6666667,17 C14.6666667,17.368 14.368,17.6666667 14,17.6666667 C13.632,17.6666667 13.3333333,17.368 13.3333333,17 L13.3333333,11.6666667 C13.3333333,11.2986667 13.632,11 14,11 L14,11 Z" id="Fill-1166" fill="#ffffff"></path>
    </g>
</svg>