<?xml version="1.0" encoding="UTF-8"?>
<svg width="26px" height="26px" viewBox="0 0 26 26" version="1.1" xmlns="http://www.w3.org/2000/svg" xmlns:xlink="http://www.w3.org/1999/xlink">
    <title>Icono general/ver@2x</title>
    <g id="Icono-general/ver" stroke="none" stroke-width="1" fill="none" fill-rule="evenodd">
        <path d="M13,9.54350762 C9.00848929,9.54350762 6.60447617,11.9282269 5.63592514,13.1483697 C5.51244453,13.3034922 5.51244453,13.5010612 5.63592514,13.6561837 C6.60447617,14.8763265 9.00848929,17.2610457 13,17.2610457 C16.9915107,17.2610457 19.3962956,14.8763265 20.3640749,13.6561837 C20.4875555,13.5010612 20.4875555,13.3034922 20.3640749,13.1483697 C19.3962956,11.9282269 16.9915107,9.54350762 13,9.54350762 Z M4.42658692,12.1890797 C5.53096662,10.7983793 8.3316612,8 13,8 C17.6683388,8 20.4698051,10.7983793 21.5734131,12.1890797 C22.1421956,12.906039 22.1421956,13.8985144 21.5734131,14.6154737 C20.4698051,16.006174 17.6683388,18.8045533 13,18.8045533 C8.3316612,18.8045533 5.53096662,16.006174 4.42658692,14.6154737 C3.85780436,13.8985144 3.85780436,12.906039 4.42658692,12.1890797 Z M13,11.8587691 C12.1479838,11.8587691 11.4564924,12.5502605 11.4564924,13.4022767 C11.4564924,14.2542929 12.1479838,14.9457843 13,14.9457843 C13.8520162,14.9457843 14.5435076,14.2542929 14.5435076,13.4022767 C14.5435076,12.5502605 13.8520162,11.8587691 13,11.8587691 Z M9.91298476,13.4022767 C9.91298476,11.6974725 11.2951958,10.3152614 13,10.3152614 C14.7048042,10.3152614 16.0870152,11.6974725 16.0870152,13.4022767 C16.0870152,15.1070808 14.7048042,16.4892919 13,16.4892919 C11.2951958,16.4892919 9.91298476,15.1070808 9.91298476,13.4022767 L9.91298476,13.4022767 Z" id="Fill-1159" fill="#ffffff"></path>
    </g>
</svg>